<?xml version="1.0" standalone="no"?>
<!DOCTYPE svg PUBLIC "-//W3C//DTD SVG 20010904//EN"
 "http://www.w3.org/TR/2001/REC-SVG-20010904/DTD/svg10.dtd">
<svg version="1.0" xmlns="http://www.w3.org/2000/svg"
 width="1536.000000pt" height="1024.000000pt" viewBox="0 0 1536.000000 1024.000000"
 preserveAspectRatio="xMidYMid meet">

<g transform="translate(0.000000,1024.000000) scale(0.100000,-0.100000)"
fill="#000000" stroke="none">
<path d="M7237 7723 c-9 -17 -7 -5002 2 -5007 12 -8 294 59 521 124 36 10 90
24 120 30 30 7 84 21 120 32 36 10 103 28 150 38 47 11 103 24 125 30 22 6 58
15 80 20 146 34 432 107 464 118 14 6 53 15 86 22 99 20 316 79 375 102 108
42 167 90 239 198 54 81 79 146 100 266 17 96 14 1173 -4 1247 -27 114 -119
226 -222 273 -48 22 -54 40 -18 54 36 14 122 97 151 146 58 98 57 96 61 656 4
541 -1 653 -36 752 -44 125 -152 243 -277 302 -62 29 -291 103 -384 124 -19 4
-71 19 -115 33 -44 14 -105 32 -135 40 -30 8 -111 32 -180 52 -312 93 -360
107 -440 130 -47 13 -112 31 -145 40 -33 9 -112 31 -175 50 -63 18 -164 47
-225 64 -190 55 -220 64 -227 68 -4 2 -8 0 -11 -4z m933 -1117 c69 -15 154
-33 190 -41 378 -79 430 -93 467 -121 60 -46 65 -70 71 -359 4 -238 3 -264
-13 -299 -33 -68 -61 -78 -205 -72 -69 3 -172 10 -230 15 -58 5 -177 15 -264
21 -88 6 -163 13 -168 16 -10 6 -11 858 -1 868 4 3 12 5 18 2 6 -2 67 -16 135
-30z m245 -1706 c171 -6 332 -13 359 -16 69 -9 112 -39 141 -101 l25 -52 0
-330 c0 -301 -2 -333 -19 -373 -10 -24 -32 -55 -48 -70 -30 -29 -89 -43 -288
-67 -49 -6 -119 -16 -155 -21 -81 -12 -387 -50 -406 -50 -12 0 -14 84 -14 534
0 294 3 541 6 550 4 12 16 14 47 11 23 -3 182 -9 352 -15z"/>
<path d="M6939 7577 c-41 -29 -120 -81 -175 -116 -130 -84 -253 -164 -334
-216 -85 -56 -572 -369 -632 -408 l-48 -30 0 -1672 0 -1673 68 -36 c94 -51
175 -97 187 -106 6 -5 35 -22 65 -38 30 -16 104 -57 165 -91 60 -33 115 -61
122 -61 10 0 13 172 15 853 l3 852 60 7 c33 4 105 12 160 17 55 6 150 17 210
25 61 8 137 17 170 21 l60 6 0 367 c0 202 4 397 8 435 9 80 10 80 -110 43 -43
-14 -125 -39 -183 -56 -58 -17 -154 -46 -215 -65 -60 -19 -122 -37 -138 -41
l-27 -6 2 353 3 354 326 163 326 162 8 485 c4 266 8 492 9 502 2 31 -27 22
-105 -30z"/>
</g>
</svg>
